<?xml version="1.0" encoding="UTF-8"?>
<svg version="1.1" xmlns="http://www.w3.org/2000/svg" width="468" height="146">
<path d="M0 0 C154.44 0 308.88 0 468 0 C468 48.18 468 96.36 468 146 C313.56 146 159.12 146 0 146 C0 97.82 0 49.64 0 0 Z " fill="#FEFEFE" transform="translate(0,0)"/>
<path d="M0 0 C1.58952736 -0.00430527 1.58952736 -0.00430527 3.21116638 -0.00869751 C5.44083189 -0.01073007 7.67051555 -0.00525707 9.90014648 0.00732422 C13.30167673 0.0234048 16.70202173 0.00743906 20.10351562 -0.01171875 C22.27734636 -0.00973649 24.45117635 -0.00589317 26.625 0 C27.63558975 -0.00607269 28.6461795 -0.01214539 29.68739319 -0.0184021 C38.51814245 0.06907118 44.2582112 2.05473012 50.74609375 8.3984375 C55.31285128 14.61502613 55.36000508 20.01211381 55.34765625 27.578125 C55.3562265 28.74546173 55.36479675 29.91279846 55.37362671 31.11550903 C55.38508262 33.57811903 55.38613642 36.04079668 55.37744141 38.50341797 C55.37112519 42.25476532 55.41805474 46.00294899 55.46875 49.75390625 C55.47329704 52.15364188 55.47470249 54.55338594 55.47265625 56.953125 C55.49107574 58.06589813 55.50949524 59.17867126 55.5284729 60.32516479 C55.42639179 68.99347636 53.01290036 73.73036789 47.24687195 80.03865051 C41.9416188 84.72106299 35.52643547 84.10211661 28.8046875 84.02734375 C27.56364761 84.02975571 26.32260773 84.03216766 25.04396057 84.03465271 C21.75954631 84.03342622 18.47634255 84.00844931 15.19213867 83.97491455 C13.18356047 83.96093727 11.17582801 83.96452452 9.16723633 83.97485352 C5.29599556 83.99364248 1.42590773 83.98419411 -2.4453125 83.96484375 C-3.63919083 83.96980362 -4.83306915 83.97476349 -6.06312561 83.97987366 C-13.82768851 83.86990293 -17.41557759 82.99071945 -23.08203125 77.6875 C-23.55125 77.13835937 -24.02046875 76.58921875 -24.50390625 76.0234375 C-24.9834375 75.47945313 -25.46296875 74.93546875 -25.95703125 74.375 C-29.79782776 68.52125592 -29.56086801 62.33350625 -29.5546875 55.59375 C-29.55897263 54.55580292 -29.56325775 53.51785583 -29.56767273 52.44845581 C-29.57340206 50.25812508 -29.57392662 48.06777532 -29.56958008 45.87744141 C-29.56642349 42.54165885 -29.58988582 39.2067666 -29.61523438 35.87109375 C-29.61750797 33.73698028 -29.61821059 31.60286444 -29.6171875 29.46875 C-29.62639725 28.4789212 -29.63560699 27.48909241 -29.64509583 26.4692688 C-29.59965646 19.60443425 -28.74483013 13.96140457 -24.7109375 8.19140625 C-24.16824219 7.66160156 -23.62554687 7.13179687 -23.06640625 6.5859375 C-22.27169922 5.77189453 -22.27169922 5.77189453 -21.4609375 4.94140625 C-14.71060505 0.22214728 -7.95766731 -0.04791406 0 0 Z " fill="#4C60F5" transform="translate(55.25390625,25.6015625)"/>
<path d="M0 0 C4.62 0 9.24 0 14 0 C14 24.42 14 48.84 14 74 C9.71 74 5.42 74 1 74 C1 71.69 1 69.38 1 67 C0.54109375 67.40992187 0.0821875 67.81984375 -0.390625 68.2421875 C-1.00421875 68.78101562 -1.6178125 69.31984375 -2.25 69.875 C-2.85328125 70.40867187 -3.4565625 70.94234375 -4.078125 71.4921875 C-8.52350491 74.97982296 -12.41555696 75.62923302 -18 75 C-25.24015732 73.4554331 -29.41857472 70.7287254 -33.6875 64.5625 C-38.07910192 55.98842006 -38.55556337 45.47856788 -36.3125 36.13671875 C-33.98267061 30.51600536 -30.2266248 24.6518557 -24.7109375 21.828125 C-18.46277855 19.91946549 -11.39829033 20.10572225 -5.3125 22.375 C-3 24 -3 24 -1 26 C-0.67 17.42 -0.34 8.84 0 0 Z " fill="#080808" transform="translate(349,32)"/>
<path d="M0 0 C37.30769231 0 37.30769231 0 44 5.4375 C44.66 6.283125 45.32 7.12875 46 8 C46.5775 8.70125 47.155 9.4025 47.75 10.125 C51.38947978 15.58421968 50.48629347 22.73376125 50 29 C48.56303888 34.59202943 45.62259982 37.84440012 40.87890625 40.9921875 C40.25886719 41.32476562 39.63882813 41.65734375 39 42 C38.31421875 42.37125 37.6284375 42.7425 36.921875 43.125 C32.52434499 44.44190738 28.24740189 44.20814141 23.6875 44.125 C20.490625 44.08375 17.29375 44.0425 14 44 C14 52.58 14 61.16 14 70 C9.38 70 4.76 70 0 70 C0 46.9 0 23.8 0 0 Z " fill="#040404" transform="translate(138,36)"/>
<path d="M0 0 C1.16499023 -0.0299707 1.16499023 -0.0299707 2.35351562 -0.06054688 C7.68800999 -0.05602994 10.69295213 0.94580772 14.9375 4.4375 C18.78033752 8.81038407 19.08552349 12.5920095 19.25390625 18.29296875 C19.27468735 18.95460526 19.29546844 19.61624176 19.31687927 20.29792786 C19.38214727 22.40684852 19.44115344 24.51589135 19.5 26.625 C19.54320689 28.05665315 19.58682188 29.48829404 19.63085938 30.91992188 C19.73780506 34.42565154 19.83913641 37.93151786 19.9375 41.4375 C21.9175 42.0975 23.8975 42.7575 25.9375 43.4375 C25.9375 46.4075 25.9375 49.3775 25.9375 52.4375 C22.23830155 54.28709923 17.97515322 53.90877183 13.9375 53.4375 C11 51.625 11 51.625 8.9375 49.4375 C8.339375 48.86 7.74125 48.2825 7.125 47.6875 C6.733125 47.275 6.34125 46.8625 5.9375 46.4375 C5.628125 47.30375 5.628125 47.30375 5.3125 48.1875 C3.27727284 51.51787172 1.45960892 52.70734123 -2.0625 54.4375 C-7.22358441 55.21477175 -12.25395067 55.23779611 -17 52.875 C-21.32549911 49.43225581 -23.60908453 46.38703774 -24.44140625 40.97265625 C-24.63748035 36.76655055 -24.28609978 33.94059951 -22.5625 30.0625 C-16.31337525 23.50091901 -7.86860163 22.22760588 0.62109375 20.26953125 C3.76316236 19.78309857 3.76316236 19.78309857 4.9375 18.4375 C4.97830783 16.43791636 4.98004356 14.43704746 4.9375 12.4375 C1.42331908 10.68040954 -2.22756374 10.8845557 -6.0625 11.4375 C-8.57027073 12.52800627 -10.80426928 13.79119358 -13.1171875 15.24609375 C-15.0625 16.4375 -15.0625 16.4375 -18.0625 17.4375 C-22.04209184 12.13137755 -22.04209184 12.13137755 -22.125 9.3125 C-17.60113816 1.32921441 -8.28100875 -0.07597256 0 0 Z " fill="#040404" transform="translate(218.0625,52.5625)"/>
<path d="M0 0 C4.62 0 9.24 0 14 0 C14 17.49 14 34.98 14 53 C9.71 53 5.42 53 1 53 C1 50.36 1 47.72 1 45 C0.34 45 -0.32 45 -1 45 C-1.226875 45.5775 -1.45375 46.155 -1.6875 46.75 C-3.66629537 50.14222063 -6.50986942 52.25493471 -10 54 C-15.63664961 54.51472399 -20.45484372 54.78613214 -25.5625 52.1875 C-26.366875 51.465625 -27.17125 50.74375 -28 50 C-28.5775 49.566875 -29.155 49.13375 -29.75 48.6875 C-33.56652531 43.53519083 -33.27250233 36.8941098 -33.1953125 30.78515625 C-33.1924826 29.92941513 -33.18965271 29.07367401 -33.18673706 28.19200134 C-33.17561935 25.48202009 -33.15053082 22.77237991 -33.125 20.0625 C-33.11495931 18.21549959 -33.10583537 16.36849396 -33.09765625 14.52148438 C-33.07570763 10.01419323 -33.04123654 5.50715427 -33 1 C-28.71 1 -24.42 1 -20 1 C-19.97494385 2.10512939 -19.9498877 3.21025879 -19.92407227 4.34887695 C-19.82993491 8.44714044 -19.72972959 12.54523694 -19.62768555 16.64331055 C-19.58436066 18.41735937 -19.54268381 20.19144923 -19.50268555 21.96557617 C-19.4449238 24.51493705 -19.38124638 27.0640918 -19.31640625 29.61328125 C-19.29969376 30.40712723 -19.28298126 31.20097321 -19.26576233 32.01887512 C-19.17882282 35.24683077 -19.02749634 37.91751099 -18 41 C-13.44937587 42.51687471 -9.61765604 42.71895824 -5.1875 40.75 C-2.74937731 38.79950185 -2.07852651 37.90331518 -1 35 C-0.76417598 32.28784318 -0.62803496 29.66798936 -0.5859375 26.953125 C-0.56657135 26.18192322 -0.5472052 25.41072144 -0.5272522 24.6161499 C-0.46762923 22.16087795 -0.42114086 19.70555867 -0.375 17.25 C-0.33680425 15.58201118 -0.29775159 13.91404174 -0.2578125 12.24609375 C-0.16194209 8.16422057 -0.07784765 4.08225507 0 0 Z " fill="#070707" transform="translate(410,53)"/>
<path d="M0 0 C4.29 0 8.58 0 13 0 C13.33 2.31 13.66 4.62 14 7 C14.39832031 6.57847656 14.79664063 6.15695313 15.20703125 5.72265625 C15.73683594 5.17480469 16.26664062 4.62695312 16.8125 4.0625 C17.33457031 3.51722656 17.85664063 2.97195312 18.39453125 2.41015625 C22.60977564 -1.29228469 28.99954778 -0.53495389 34.30859375 -0.41015625 C38.67886388 0.07542932 40.73383742 1.05876784 43.80078125 4.1015625 C47.30776829 9.65334004 47.27077035 15.22528315 47.1953125 21.5546875 C47.1924826 22.45623566 47.18965271 23.35778381 47.18673706 24.28665161 C47.17559439 27.14957276 47.1505008 30.01217434 47.125 32.875 C47.11496255 34.82291213 47.10583804 36.77082919 47.09765625 38.71875 C47.07567443 43.4792887 47.0411855 48.23959027 47 53 C42.71 53 38.42 53 34 53 C33.98541748 51.86457764 33.97083496 50.72915527 33.95581055 49.55932617 C33.89786324 45.34904391 33.82063059 41.1392985 33.73754883 36.92944336 C33.7042826 35.10694081 33.67625594 33.28433481 33.65356445 31.46166992 C33.62004919 28.8424875 33.56773648 26.22425452 33.51171875 23.60546875 C33.50532883 22.78974899 33.4989389 21.97402924 33.49235535 21.1335907 C33.4997418 16.91037631 33.4997418 16.91037631 31.61921692 13.28779602 C28.80068049 11.04615689 25.84075676 11.53871049 22.37890625 11.64453125 C19.82539706 11.84527099 19.82539706 11.84527099 17.5 13.75 C14.38065178 18.42902234 13.67842156 21.99534232 13.5859375 27.609375 C13.56657135 28.33618469 13.5472052 29.06299438 13.5272522 29.81182861 C13.46765729 32.12443448 13.42115242 34.43709067 13.375 36.75 C13.33680164 38.32163582 13.29774883 39.89325113 13.2578125 41.46484375 C13.16197257 45.30972842 13.07786805 49.15471107 13 53 C8.71 53 4.42 53 0 53 C0 35.51 0 18.02 0 0 Z " fill="#040404" transform="translate(253,53)"/>
<path d="M0 0 C4.05150415 0.69202711 5.74889188 2.45012875 8.515625 5.4296875 C10.06474321 8.52792391 9.74126897 11.78202141 9.765625 15.1796875 C9.78625 15.88351563 9.806875 16.58734375 9.828125 17.3125 C9.86362127 22.08674805 9.10892224 25.27791835 6.515625 29.4296875 C3.62629712 31.83746073 1.82084364 32.39084149 -1.921875 32.8671875 C-6.19406193 32.34253296 -8.23469271 31.22592575 -11.484375 28.4296875 C-13.67137519 24.28628918 -13.78296104 20.5676735 -13.796875 15.9296875 C-13.81363281 14.640625 -13.83039063 13.3515625 -13.84765625 12.0234375 C-13.3867028 7.4634679 -11.84371973 5.17577538 -9.09765625 1.6484375 C-6.27468712 -0.48416872 -3.41517418 -0.089873 0 0 Z " fill="#FAFAFA" transform="translate(339.484375,63.5703125)"/>
<path d="M0 0 C14.52150595 -0.41098602 14.52150595 -0.41098602 20 3 C22.46106473 6.41373495 23.2450399 8.99627683 22.9375 13.125 C21.96298767 17.1529843 21.24333221 18.54293015 18 21 C14.81453711 22.59273144 11.36800652 22.10141833 7.875 22.0625 C5.27625 22.041875 2.6775 22.02125 0 22 C0 14.74 0 7.48 0 0 Z " fill="#FAFAFA" transform="translate(152,47)"/>
<path d="M0 0 C2.5 0.25 2.5 0.25 4.5 2.25 C4.75396729 4.14746094 4.75396729 4.14746094 4.75878906 6.484375 C4.76509338 7.35868164 4.77139771 8.23298828 4.77789307 9.13378906 C4.7738446 10.07963867 4.76979614 11.02548828 4.765625 12 C4.76753845 12.96905273 4.7694519 13.93810547 4.77142334 14.93652344 C4.77278579 16.98763285 4.76908518 19.03875086 4.76074219 21.08984375 C4.75004359 24.23717539 4.76063554 27.3839362 4.7734375 30.53125 C4.77211592 32.5208346 4.76955355 34.51041884 4.765625 36.5 C4.76967346 37.44584961 4.77372192 38.39169922 4.77789307 39.36621094 C4.77158875 40.24051758 4.76528442 41.11482422 4.75878906 42.015625 C4.75640228 43.17239746 4.75640228 43.17239746 4.75396729 44.35253906 C4.5 46.25 4.5 46.25 2.5 48.25 C0 48.5 0 48.5 -2.5 48.25 C-4.9062622 45.8437378 -4.75201459 45.29892823 -4.75878906 42.015625 C-4.76509338 41.14131836 -4.77139771 40.26701172 -4.77789307 39.36621094 C-4.7738446 38.42036133 -4.76979614 37.47451172 -4.765625 36.5 C-4.76753845 35.53094727 -4.7694519 34.56189453 -4.77142334 33.56347656 C-4.77278579 31.51236715 -4.76908518 29.46124914 -4.76074219 27.41015625 C-4.75004359 24.26282461 -4.76063554 21.1160638 -4.7734375 17.96875 C-4.77211592 15.9791654 -4.76955355 13.98958116 -4.765625 12 C-4.76967346 11.05415039 -4.77372192 10.10830078 -4.77789307 9.13378906 C-4.77158875 8.25948242 -4.76528442 7.38517578 -4.75878906 6.484375 C-4.75719788 5.71319336 -4.75560669 4.94201172 -4.75396729 4.14746094 C-4.33048245 0.98348674 -3.05307584 0.30530758 0 0 Z " fill="#F6F7FD" transform="translate(52.5,43.75)"/>
<path d="M0 0 C4.55555556 0.55555556 4.55555556 0.55555556 6 2 C6.10106874 4.87264056 6.13969672 7.72073628 6.1328125 10.59375 C6.13376923 11.45560913 6.13472595 12.31746826 6.13571167 13.20544434 C6.1363935 15.03133212 6.13453904 16.85722231 6.13037109 18.68310547 C6.12502286 21.48801078 6.13031599 24.29275595 6.13671875 27.09765625 C6.13605797 28.86718786 6.13477681 30.63671936 6.1328125 32.40625 C6.13483673 33.25102905 6.13686096 34.09580811 6.13894653 34.96618652 C6.11495031 40.88504969 6.11495031 40.88504969 5 42 C3.00041636 42.04080783 0.99954746 42.04254356 -1 42 C-2.6301972 38.7396056 -2.16307421 35.1453944 -2.16796875 31.5625 C-2.17129715 30.72662354 -2.17462555 29.89074707 -2.17805481 29.02954102 C-2.18312107 27.26091055 -2.18546323 25.49227052 -2.18530273 23.72363281 C-2.1874912 21.01090865 -2.20565527 18.29858977 -2.22460938 15.5859375 C-2.2275429 13.86979306 -2.22952797 12.15364669 -2.23046875 10.4375 C-2.23765427 9.62289307 -2.24483978 8.80828613 -2.25224304 7.96899414 C-2.22882646 2.22882646 -2.22882646 2.22882646 0 0 Z " fill="#C7CDFA" transform="translate(84,50)"/>
<path d="M0 0 C1.9375 0.8125 1.9375 0.8125 3.9375 2.8125 C4.19628906 5.39453125 4.19628906 5.39453125 4.203125 8.625 C4.20570312 9.78257813 4.20828125 10.94015625 4.2109375 12.1328125 C4.20320313 13.34710938 4.19546875 14.56140625 4.1875 15.8125 C4.19523437 17.02679688 4.20296875 18.24109375 4.2109375 19.4921875 C4.20835938 20.64976563 4.20578125 21.80734375 4.203125 23 C4.20086914 24.06605469 4.19861328 25.13210937 4.19628906 26.23046875 C3.9375 28.8125 3.9375 28.8125 1.9375 30.8125 C-0.5625 31.0625 -0.5625 31.0625 -3.0625 30.8125 C-6.26439713 27.61060287 -5.35792548 23.90619853 -5.38476562 19.54101562 C-5.38154297 18.33123047 -5.37832031 17.12144531 -5.375 15.875 C-5.39111328 14.66908203 -5.40722656 13.46316406 -5.42382812 12.22070312 C-5.42447266 11.06634766 -5.42511719 9.91199219 -5.42578125 8.72265625 C-5.42876221 7.66183838 -5.43174316 6.60102051 -5.43481445 5.50805664 C-5.0625 2.8125 -5.0625 2.8125 -3.66870117 0.93139648 C-2.0625 -0.1875 -2.0625 -0.1875 0 0 Z " fill="#E6E9FD" transform="translate(70.0625,61.1875)"/>
<path d="M0 0 C0.38475006 6.28425101 -0.90911442 10.58855511 -4.1875 15.9375 C-7.29672764 17.76015069 -10.55900937 17.61619349 -14 17 C-16.5 15.375 -16.5 15.375 -18 13 C-18.5625 10 -18.5625 10 -18 7 C-14.03020401 2.20886691 -6.15331944 0 0 0 Z " fill="#F4F4F4" transform="translate(225,80)"/>
</svg>
